<svg width="16" height="16" viewBox="0 0 16 16" fill="none" xmlns="http://www.w3.org/2000/svg">
<circle cx="8" cy="8" r="8" fill="black"/>
<path d="M2.75 8C2.75 8.68944 2.8858 9.37213 3.14963 10.0091C3.41347 10.646 3.80018 11.2248 4.28769 11.7123C4.7752 12.1998 5.35395 12.5865 5.99091 12.8504C6.62787 13.1142 7.31056 13.25 8 13.25C8.68944 13.25 9.37213 13.1142 10.0091 12.8504C10.646 12.5865 11.2248 12.1998 11.7123 11.7123C12.1998 11.2248 12.5865 10.646 12.8504 10.0091C13.1142 9.37213 13.25 8.68944 13.25 8C13.25 7.31056 13.1142 6.62787 12.8504 5.99091C12.5865 5.35395 12.1998 4.7752 11.7123 4.28769C11.2248 3.80018 10.646 3.41347 10.0091 3.14963C9.37213 2.8858 8.68944 2.75 8 2.75C7.31056 2.75 6.62787 2.8858 5.99091 3.14963C5.35395 3.41347 4.7752 3.80018 4.28769 4.28769C3.80018 4.7752 3.41347 5.35395 3.14963 5.99091C2.8858 6.62787 2.75 7.31056 2.75 8Z" stroke="#76FF03" stroke-width="0.333333" stroke-linecap="round" stroke-linejoin="round"/>
<path d="M8.00006 5.08337L10.7767 7.09587L9.75006 10.3334H6.25006L5.22339 7.09587L8.00006 5.08337Z" stroke="#76FF03" stroke-width="0.333333" stroke-linecap="round" stroke-linejoin="round"/>
<path d="M7.99996 5.08333V2.75M9.74996 10.3333L11.2083 12.0833M10.7766 7.09583L12.9583 6.25M6.28496 10.3625L4.79163 12.0833M5.22329 7.09583L3.04163 6.25" stroke="#76FF03" stroke-width="0.333333" stroke-linecap="round" stroke-linejoin="round"/>
</svg>
